<svg id="Capa_1" data-name="Capa 1" xmlns="http://www.w3.org/2000/svg" viewBox="0 0 500 332"><defs><style>.cls-1{fill:none;stroke:#c6815c;stroke-linecap:round;stroke-linejoin:round;stroke-width:1.67px;}.cls-2,.cls-3{fill:#c6815c;}.cls-3{font-size:20.7px;font-family:RoxboroughCF-Thin, Roxborough CF;font-weight:200;}.cls-4{letter-spacing:-0.03em;}.cls-5{letter-spacing:0em;}.cls-6{letter-spacing:0em;}.cls-7{letter-spacing:-0.02em;}.cls-8{letter-spacing:-0.01em;}.cls-9{letter-spacing:-0.11em;}</style></defs><circle class="cls-1" cx="145.6" cy="175.39" r="23.45"/><path class="cls-1" d="M148.84,152.17a240.44,240.44,0,0,0-2.47-26.2l-.77-5.18-.78,5.18a242.94,242.94,0,0,0-2.46,26.2,22.94,22.94,0,0,1,6.48,0Z"/><path class="cls-1" d="M142.36,198.62a240.44,240.44,0,0,0,2.47,26.2l.77,5.18.78-5.18a242.94,242.94,0,0,0,2.46-26.2,22.94,22.94,0,0,1-6.48,0Z"/><path class="cls-1" d="M168.83,178.63A242.76,242.76,0,0,0,195,176.17l5.19-.78-5.19-.77a240.26,240.26,0,0,0-26.19-2.47,24,24,0,0,1,0,6.48Z"/><path class="cls-1" d="M122.37,172.16a240.25,240.25,0,0,0-26.19,2.46L91,175.4l5.19.77a237.79,237.79,0,0,0,26.19,2.46,24.43,24.43,0,0,1-.23-3.23A24.71,24.71,0,0,1,122.37,172.16Z"/><path class="cls-1" d="M136.16,145.1c-3.34-1.6-6.54-5.17-7.26-8.62s-1.78-8.49-6.53-8.33c0,0,4,2.63,3.91,7.11-.09,3.12-1.46,7,1,9.6s4.79,5.1,4.79,8a8.1,8.1,0,0,1-1,4.11h0a23.31,23.31,0,0,1,11.25-4.79S140.38,147.12,136.16,145.1Z"/><path class="cls-1" d="M155,145.1c3.34-1.6,6.54-5.17,7.26-8.62s1.78-8.49,6.52-8.33c0,0-4,2.63-3.9,7.11.09,3.12,1.46,7-1,9.6s-4.79,5.1-4.79,8a8.1,8.1,0,0,0,1,4.11h0a23.31,23.31,0,0,0-11.25-4.79S150.81,147.12,155,145.1Z"/><path class="cls-1" d="M155,205.65c3.34,1.6,6.54,5.17,7.26,8.62s1.77,8.49,6.52,8.33c0,0-4-2.63-3.91-7.11.1-3.12,1.46-7-1-9.6s-4.79-5.1-4.79-8a8.17,8.17,0,0,1,1-4.11h0a23.31,23.31,0,0,1-11.25,4.79S150.81,203.63,155,205.65Z"/><path class="cls-1" d="M136.16,205.65c-3.34,1.6-6.54,5.17-7.26,8.62s-1.78,8.49-6.53,8.33c0,0,4-2.63,3.91-7.11-.1-3.12-1.46-7,1-9.6s4.79-5.1,4.79-8a8.1,8.1,0,0,0-1-4.11h0a23.31,23.31,0,0,0,11.25,4.79S140.38,203.63,136.16,205.65Z"/><path class="cls-1" d="M131.46,156.68A239.07,239.07,0,0,0,111.2,139.9L107,136.78,110.1,141a244.58,244.58,0,0,0,16.78,20.26,25.76,25.76,0,0,1,2.13-2.45A24.42,24.42,0,0,1,131.46,156.68Z"/><path class="cls-1" d="M159.73,194.11A243.08,243.08,0,0,0,180,210.89l4.21,3.12-3.11-4.22a242.94,242.94,0,0,0-16.78-20.26,25.76,25.76,0,0,1-2.13,2.45A23.46,23.46,0,0,1,159.73,194.11Z"/><path class="cls-1" d="M164.31,161.26A241.25,241.25,0,0,0,181.1,141l3.11-4.21L180,139.9a239.21,239.21,0,0,0-20.27,16.78,22.24,22.24,0,0,1,2.45,2.13A23.2,23.2,0,0,1,164.31,161.26Z"/><path class="cls-1" d="M126.89,189.53a242.73,242.73,0,0,0-16.79,20.26L107,214l4.21-3.12a239.21,239.21,0,0,0,20.27-16.78A22.38,22.38,0,0,1,129,192,23.2,23.2,0,0,1,126.89,189.53Z"/><path class="cls-1" d="M175.87,165.93c1.6-3.33,5.17-6.53,8.63-7.25s8.49-1.78,8.33-6.53c0,0-2.64,4-7.12,3.91-3.12-.1-7-1.46-9.6,1s-5.1,4.79-8,4.79a8.1,8.1,0,0,1-4.11-1v0a23.46,23.46,0,0,1,4.79,11.25S173.85,170.16,175.87,165.93Z"/><path class="cls-1" d="M175.87,184.82c1.6,3.34,5.17,6.53,8.63,7.25s8.49,1.78,8.33,6.53c0,0-2.64-4-7.12-3.91-3.12.1-7,1.46-9.6-1s-5.1-4.78-8-4.78a8.17,8.17,0,0,0-4.11,1v0a23.42,23.42,0,0,0,4.79-11.25S173.85,180.59,175.87,184.82Z"/><path class="cls-1" d="M115.32,184.82c-1.6,3.33-5.16,6.53-8.62,7.25s-8.49,1.78-8.33,6.53c0,0,2.64-4,7.12-3.91,3.12.1,7,1.46,9.59-1s5.11-4.79,8-4.79a8.1,8.1,0,0,1,4.11,1v0a23.27,23.27,0,0,1-4.79-11.25S117.35,180.59,115.32,184.82Z"/><path class="cls-1" d="M115.32,165.93c-1.6-3.34-5.16-6.53-8.62-7.25s-8.49-1.78-8.33-6.53c0,0,2.64,4,7.12,3.91,3.12-.1,7-1.46,9.59,1s5.11,4.78,8,4.78a8.17,8.17,0,0,0,4.11-1v0a23.23,23.23,0,0,0-4.79,11.25S117.35,170.16,115.32,165.93Z"/><path class="cls-1" d="M159.69,172.28a3.08,3.08,0,0,1-1.33-.95,4.81,4.81,0,0,0-6.64,0,3.08,3.08,0,0,1-1.33.95"/><path class="cls-1" d="M156.48,171.44A1.44,1.44,0,1,1,155,170,1.45,1.45,0,0,1,156.48,171.44Z"/><path class="cls-1" d="M149.94,170.87a26.87,26.87,0,0,1,2.57-2,6,6,0,0,1,4-.28,13.42,13.42,0,0,1,2.63,2.32"/><path class="cls-1" d="M149.18,179.61a2.61,2.61,0,0,1,.86,2.23c-.24,1.28-1.52,1.14-2.42,1.19s-1.38,1.19-2.38,1.14-1.47-1.09-2.37-1.14-2.19.09-2.42-1.19a2.61,2.61,0,0,1,.85-2.23"/><path class="cls-1" d="M144.15,182.17s-1-.42-.57-2.13.9-1.33.9-4v-6"/><path class="cls-1" d="M150.61,187.89a16,16,0,0,1-2,.11c-.76,0-1.1-.25-1.67-.23-1.14,0-1.08.43-1.75.46s-.61-.41-1.75-.46c-.57,0-.91.19-1.67.23a15.79,15.79,0,0,1-1.94-.11"/><path class="cls-1" d="M148.14,187.06s-1.19-.61-1.52-.52a9.61,9.61,0,0,0-1.38.86,9.07,9.07,0,0,0-1.38-.86c-.33-.09-1.51.52-1.51.52"/><path class="cls-1" d="M148.85,188.68a8.79,8.79,0,0,1-3.61,1.42,8.79,8.79,0,0,1-3.61-1.42"/><path class="cls-1" d="M148.85,165.89s4-4,11.25,0"/><path class="cls-1" d="M131.5,172.28a3,3,0,0,0,1.33-.95,4.82,4.82,0,0,1,6.65,0,3,3,0,0,0,1.33.95"/><path class="cls-1" d="M134.72,171.44a1.44,1.44,0,1,0,1.44-1.44A1.44,1.44,0,0,0,134.72,171.44Z"/><path class="cls-1" d="M141.25,170.87a26.37,26.37,0,0,0-2.56-2,6,6,0,0,0-4-.28,13.42,13.42,0,0,0-2.63,2.32"/><path class="cls-1" d="M142.35,165.89s-4-4-11.26,0"/><path class="cls-2" d="M295,209.86v.44H262.9v-.44c7.72-.66,12.13-3.09,8.27-12.8L269,191.55h-42.9l-2.43,5.51c-4.08,9.49.33,11.48,6.51,12.8v.44h-20.3v-.44c4.63-1.32,7.28-3.42,11.36-12.91l24.38-56.25-.22-2.65,1.87-1.21,11-6.84c0,.88.22,1.87,2.54,7.61l23.28,58.79C288.05,206.55,290,209.2,295,209.86Zm-26.81-20.3-19.85-49.63-21.51,49.63Z"/><path class="cls-2" d="M351,139.27v64.64c0,4,3.87,5.18,8.39,5.74v.55H330.24v-.55c4.52-.56,8.38-1.77,8.38-5.74V138.72l-30.77,72.69-31.55-63v42.24c0,15,3.86,18.42,8.38,19v.55h-19v-.55c4.52-.56,8.38-1.77,8.38-16.77V144a27.49,27.49,0,0,0-8.93-11H282l30.66,61.33L338.62,133h20.74v.56C354.84,134.09,351,135.3,351,139.27Z"/><circle class="cls-2" cx="373" cy="170" r="4"/><text class="cls-3" transform="translate(210.32 240.31)"><tspan class="cls-4">A</tspan><tspan class="cls-5" x="15.71" y="0">S</tspan><tspan class="cls-6" x="28.02" y="0">T</tspan><tspan class="cls-7" x="42.09" y="0">R</tspan><tspan class="cls-8" x="55.55" y="0">O</tspan><tspan x="72.58" y="0">M</tspan><tspan class="cls-9" x="90.15" y="0">A</tspan><tspan x="104.2" y="0">TCH</tspan></text></svg>